<?xml version="1.0" encoding="UTF-8" standalone="no"?>
<!-- Creator: CorelDRAW -->

<svg
   xmlns:dc="http://purl.org/dc/elements/1.1/"
   xmlns:cc="http://creativecommons.org/ns#"
   xmlns:rdf="http://www.w3.org/1999/02/22-rdf-syntax-ns#"
   xmlns:svg="http://www.w3.org/2000/svg"
   xmlns="http://www.w3.org/2000/svg"
   xmlns:sodipodi="http://sodipodi.sourceforge.net/DTD/sodipodi-0.dtd"
   xmlns:inkscape="http://www.inkscape.org/namespaces/inkscape"
   xml:space="preserve"
   width="220.17834mm"
   height="141.05879mm"
   style="fill-rule:evenodd;image-rendering:optimizeQuality;shape-rendering:geometricPrecision;text-rendering:geometricPrecision"
   viewBox="0 0 8668.4392 5553.4957"
   id="svg2"
   version="1.1"
   inkscape:version="0.91 r13725"
   sodipodi:docname="MyShieldBox.svg"
   inkscape:export-filename="C:\Users\David\Desktop\Modeling\WiiBescorLancBox1.png"
   inkscape:export-xdpi="150"
   inkscape:export-ydpi="150"><metadata
   id="metadata89"><rdf:RDF><cc:Work
       rdf:about=""><dc:format>image/svg+xml</dc:format><dc:type
         rdf:resource="http://purl.org/dc/dcmitype/StillImage" /><dc:title /></cc:Work></rdf:RDF></metadata><sodipodi:namedview
   pagecolor="#ffffff"
   bordercolor="#666666"
   borderopacity="1"
   objecttolerance="10"
   gridtolerance="10"
   guidetolerance="10"
   inkscape:pageopacity="0"
   inkscape:pageshadow="2"
   inkscape:window-width="1366"
   inkscape:window-height="706"
   id="namedview87"
   showgrid="true"
   inkscape:snap-grids="true"
   showguides="true"
   inkscape:zoom="1"
   inkscape:cx="345.87965"
   inkscape:cy="-141.10454"
   inkscape:window-x="-8"
   inkscape:window-y="-8"
   inkscape:window-maximized="1"
   inkscape:current-layer="g47"
   inkscape:document-units="mm"
   units="mm"
   fit-margin-top="5"
   fit-margin-left="5"
   fit-margin-right="5"
   fit-margin-bottom="5"><inkscape:grid
     type="xygrid"
     id="grid3597"
     units="mm"
     dotted="false"
     originx="4070.6897"
     originy="1781.7437"
     spacingx="39.370078"
     spacingy="39.370079"
     visible="true"
     empspacing="5" /></sodipodi:namedview>
 <defs
   id="defs4">
  <style
   type="text/css"
   id="style6">
   <![CDATA[
    .str0 {stroke:#1F1A17;stroke-width:2.25197;stroke-linecap:round;stroke-linejoin:round}
    .str3 {stroke:#0093DD;stroke-width:3}
    .str2 {stroke:#1F1A17;stroke-width:3}
    .str1 {stroke:#1F1A17;stroke-width:3;stroke-linecap:round;stroke-linejoin:round}
    .fil0 {fill:none}
   ]]>
  </style>
 </defs>
 <g
   id="Layer_x0020_1"
   transform="translate(8488.7556,-10092.842)">
  
  
  <path
   class="fil0 str1"
   d="m -6549.9015,13259.357 -118.11,0 0,-709.874 -402.7777,0 0,-130.489 402.7777,0 0,-112.877 -793.1733,0 0,953.239 -118.11,0 0,403.539 118.11,0 0,128.936 118.11,0 0,-62.991 118.11,0 0,62.991 78.7402,0 0,125.983 -78.7402,0 0,62.991 -118.11,0 0,-62.991 -118.11,0 0,128.936 -118.11,0 0,403.539 118.11,0 0,997.698 793.1733,0 0,-112.881 -402.7777,0 0,-130.489 73.6732,0 329.1047,0 0,-754.329 118.11,0 0,-403.539 -118.11,0 0,-128.936 -118.11,0 0,62.991 -118.11,0 0,-62.991 -78.7402,0 0,-125.983 78.7402,0 0,-62.991 118.11,0 0,62.991 118.11,0 0,-128.936 118.11,0 0,-403.539 z"
   id="path45"
   inkscape:export-xdpi="150"
   inkscape:export-ydpi="150"
   inkscape:connector-curvature="0"
   style="fill:none;stroke:#1f1a17;stroke-width:3;stroke-linecap:round;stroke-linejoin:round"
   sodipodi:nodetypes="ccccccccccccccccccccccccccccccccccccccccccccccccccccccc" />
  <g
   id="g47"
   inkscape:export-xdpi="90"
   inkscape:export-ydpi="90"
   transform="translate(-4424.6204,6277.433)">
   <path
   class="fil0 str1"
   d="m -1959.0559,8766.5023 0,-2355.9082 c 0,-191.5513 227.1664,-392.2207 369.4704,-392.2207 l 3212.5042,0 c 142.299,0 367.5541,200.6791 369.4705,392.2207 l 0,2221.14 0,134.7682 c 0,191.544 -227.1716,392.2046 -369.4705,392.2046 l -3212.5042,0 c -142.3043,0 -369.4704,-200.6616 -369.4704,-392.2046 z"
   id="path49"
   inkscape:connector-curvature="0"
   style="fill:none;stroke:#1f1a17;stroke-width:4.56818342;stroke-linecap:round;stroke-linejoin:round"
   sodipodi:nodetypes="ssssscssss"
   inkscape:export-xdpi="150"
   inkscape:export-ydpi="150" />
   
   
   <path
   class="fil0 str2"
   d="m 22.222222,6142.5623 c 33.6063,0 61.0236,27.4173 61.0236,61.0236 0,33.6063 -27.4173,61.0236 -61.0236,61.0236 -33.6063,0 -61.0236,-27.4173 -61.0236,-61.0236 0,-33.6063 27.4173,-61.0236 61.0236,-61.0236 z"
   id="path55"
   inkscape:connector-curvature="0"
   style="fill:none;stroke:#1f1a17;stroke-width:3"
   inkscape:export-xdpi="150"
   inkscape:export-ydpi="150" />
   
   
   <path
   class="fil0 str2"
   d="m 22.222222,8920.3387 c 33.6063,0 61.0236,27.418 61.0236,61.023 0,33.607 -27.4173,61.024 -61.0236,61.024 -33.6063,0 -61.0236,-27.417 -61.0236,-61.024 0,-33.605 27.4173,-61.023 61.0236,-61.023 z"
   id="path61"
   inkscape:connector-curvature="0"
   style="fill:none;stroke:#1f1a17;stroke-width:3"
   sodipodi:nodetypes="sssss"
   inkscape:export-xdpi="150"
   inkscape:export-ydpi="150" />
   <path
   class="fil0 str2"
   d="m -1835.7016,8179.0437 0,-421.2157 118.7338,0 0,421.2157 -118.7338,0 z"
   id="path63"
   inkscape:connector-curvature="0"
   style="fill:none;stroke:#1f1a17;stroke-width:3.29097939"
   inkscape:export-xdpi="150"
   inkscape:export-ydpi="150" />
   
   <path
   class="fil0 str2"
   d="m -1842.737,7577.424 c 0,-33.6063 27.4173,-61.0236 61.0236,-61.0236 33.6063,0 61.0235,27.4173 61.0235,61.0236 0,33.6063 -27.4172,61.0236 -61.0235,61.0236 -33.6063,0 -61.0236,-27.4173 -61.0236,-61.0236 z"
   id="path67"
   inkscape:connector-curvature="0"
   style="fill:none;stroke:#1f1a17;stroke-width:3"
   inkscape:export-xdpi="150"
   inkscape:export-ydpi="150" />
   
   
   <path
   class="fil0 str2"
   d="m 1765.1345,7599.6462 c 0,-33.6063 27.4172,-61.0236 61.0235,-61.0236 33.6063,0 61.0236,27.4173 61.0236,61.0236 0,33.6063 -27.4173,61.0236 -61.0236,61.0236 -33.6063,0 -61.0235,-27.4173 -61.0235,-61.0236 z"
   id="path73"
   inkscape:connector-curvature="0"
   style="fill:none;stroke:#1f1a17;stroke-width:3"
   inkscape:export-xdpi="150"
   inkscape:export-ydpi="150" />
  <path
   class="fil0 str2"
   d="m -1835.7014,7401.2659 0,-421.2157 118.7338,0 0,421.2157 -118.7338,0 z"
   id="path63-8"
   inkscape:connector-curvature="0"
   style="fill:none;fill-rule:evenodd;stroke:#1f1a17;stroke-width:3.29097939;image-rendering:optimizeQuality;shape-rendering:geometricPrecision;text-rendering:geometricPrecision"
   inkscape:export-xdpi="150"
   inkscape:export-ydpi="150" /><path
   class="fil0 str2"
   d="m -165.7271,9050.0197 -421.2159,0 0,-118.733 421.2159,0 z"
   id="path63-95"
   inkscape:connector-curvature="0"
   style="fill:none;fill-rule:evenodd;stroke:#1f1a17;stroke-width:3.29097939;image-rendering:optimizeQuality;shape-rendering:geometricPrecision;text-rendering:geometricPrecision"
   sodipodi:nodetypes="ccccc"
   inkscape:export-xdpi="150"
   inkscape:export-ydpi="150" /><path
   class="fil0 str2"
   d="m 634.27306,9050.0357 -421.21601,0 0,-118.733 421.21601,0 z"
   id="path63-95-74"
   inkscape:connector-curvature="0"
   style="fill:none;fill-rule:evenodd;stroke:#1f1a17;stroke-width:3.29097939;image-rendering:optimizeQuality;shape-rendering:geometricPrecision;text-rendering:geometricPrecision"
   sodipodi:nodetypes="ccccc"
   inkscape:export-xdpi="150"
   inkscape:export-ydpi="150" /><path
   class="fil0 str2"
   d="m -165.72706,6266.6948 -421.21589,0 0,-118.7342 421.21589,0 0,118.7342 z"
   id="path63-95-5"
   inkscape:connector-curvature="0"
   style="fill:none;fill-rule:evenodd;stroke:#1f1a17;stroke-width:3.29097939;image-rendering:optimizeQuality;shape-rendering:geometricPrecision;text-rendering:geometricPrecision"
   inkscape:export-xdpi="150"
   inkscape:export-ydpi="150" /><path
   class="fil0 str2"
   d="m 634.27336,6265.8025 -421.21625,0 0,-118.7342 421.21625,0 0,118.7342 z"
   id="path63-95-74-8"
   inkscape:connector-curvature="0"
   style="fill:none;fill-rule:evenodd;stroke:#1f1a17;stroke-width:3.29097939;image-rendering:optimizeQuality;shape-rendering:geometricPrecision;text-rendering:geometricPrecision"
   inkscape:export-xdpi="150"
   inkscape:export-ydpi="150" /><path
   class="fil0 str1"
   d="m -1965.3547,13621.285 0,-2355.908 c 0,-191.552 227.1663,-392.221 369.4703,-392.221 l 3212.5042,0 c 142.299,0 367.5541,200.679 369.4705,392.221 l 0,2221.14 0,134.768 c 0,191.544 -227.1716,392.204 -369.4705,392.204 l -3212.5042,0 c -142.3043,0 -369.4703,-200.661 -369.4703,-392.204 z"
   id="path49-8"
   inkscape:connector-curvature="0"
   style="fill:none;fill-rule:evenodd;stroke:#1f1a17;stroke-width:4.56818342;stroke-linecap:round;stroke-linejoin:round;image-rendering:optimizeQuality;shape-rendering:geometricPrecision;text-rendering:geometricPrecision"
   sodipodi:nodetypes="ssssscssss"
   inkscape:export-xdpi="90"
   inkscape:export-ydpi="90" /><path
   class="fil0 str2"
   d="m 15.922992,11011.691 c 33.606302,0 61.023504,27.418 61.023504,61.024 0,33.606 -27.417202,61.024 -61.023504,61.024 -33.606403,0 -61.023606,-27.418 -61.023606,-61.024 0,-33.606 27.417203,-61.024 61.023606,-61.024 z"
   id="path55-0"
   inkscape:connector-curvature="0"
   style="fill:none;fill-rule:evenodd;stroke:#1f1a17;stroke-width:3;image-rendering:optimizeQuality;shape-rendering:geometricPrecision;text-rendering:geometricPrecision"
   inkscape:export-xdpi="90"
   inkscape:export-ydpi="90" /><path
   class="fil0 str2"
   d="m 15.922992,13775.121 c 33.606302,0 61.023504,27.418 61.023504,61.023 0,33.607 -27.417202,61.024 -61.023504,61.024 -33.606403,0 -61.023606,-27.417 -61.023606,-61.024 0,-33.605 27.417203,-61.023 61.023606,-61.023 z"
   id="path61-2"
   inkscape:connector-curvature="0"
   style="fill:none;fill-rule:evenodd;stroke:#1f1a17;stroke-width:3;image-rendering:optimizeQuality;shape-rendering:geometricPrecision;text-rendering:geometricPrecision"
   sodipodi:nodetypes="sssss"
   inkscape:export-xdpi="90"
   inkscape:export-ydpi="90" /><path
   class="fil0 str2"
   d="m -1842.0005,13033.826 0,-421.216 118.7338,0 0,421.216 -118.7338,0 z"
   id="path63-9"
   inkscape:connector-curvature="0"
   style="fill:none;fill-rule:evenodd;stroke:#1f1a17;stroke-width:3.29097939;image-rendering:optimizeQuality;shape-rendering:geometricPrecision;text-rendering:geometricPrecision"
   inkscape:export-xdpi="90"
   inkscape:export-ydpi="90" /><path
   class="fil0 str2"
   d="m -1849.0359,12432.206 c 0,-33.606 27.4173,-61.023 61.0236,-61.023 33.6063,0 61.0235,27.417 61.0235,61.023 0,33.607 -27.4172,61.024 -61.0235,61.024 -33.6063,0 -61.0236,-27.417 -61.0236,-61.024 z"
   id="path67-2"
   inkscape:connector-curvature="0"
   style="fill:none;fill-rule:evenodd;stroke:#1f1a17;stroke-width:3;image-rendering:optimizeQuality;shape-rendering:geometricPrecision;text-rendering:geometricPrecision"
   inkscape:export-xdpi="90"
   inkscape:export-ydpi="90" /><path
   class="fil0 str2"
   d="m 1758.8355,12454.429 c 0,-33.607 27.4173,-61.024 61.0236,-61.024 33.6063,0 61.0236,27.417 61.0236,61.024 0,33.606 -27.4173,61.023 -61.0236,61.023 -33.6063,0 -61.0236,-27.417 -61.0236,-61.023 z"
   id="path73-9"
   inkscape:connector-curvature="0"
   style="fill:none;fill-rule:evenodd;stroke:#1f1a17;stroke-width:3;image-rendering:optimizeQuality;shape-rendering:geometricPrecision;text-rendering:geometricPrecision"
   inkscape:export-xdpi="90"
   inkscape:export-ydpi="90" /><path
   class="fil0 str2"
   d="m -1842.0003,12256.048 0,-421.215 118.7338,0 0,421.215 -118.7338,0 z"
   id="path63-8-7"
   inkscape:connector-curvature="0"
   style="fill:none;fill-rule:evenodd;stroke:#1f1a17;stroke-width:3.29097939;image-rendering:optimizeQuality;shape-rendering:geometricPrecision;text-rendering:geometricPrecision"
   inkscape:export-xdpi="90"
   inkscape:export-ydpi="90" /><path
   class="fil0 str2"
   d="m -172.02642,13904.802 -421.21578,0 0,-118.733 421.21578,0 z"
   id="path63-95-45"
   inkscape:connector-curvature="0"
   style="fill:none;fill-rule:evenodd;stroke:#1f1a17;stroke-width:3.29097939;image-rendering:optimizeQuality;shape-rendering:geometricPrecision;text-rendering:geometricPrecision"
   sodipodi:nodetypes="ccccc"
   inkscape:export-xdpi="90"
   inkscape:export-ydpi="90" /><path
   class="fil0 str2"
   d="m 627.97376,13904.818 -421.21606,0 0,-118.733 421.21606,0 z"
   id="path63-95-74-87"
   inkscape:connector-curvature="0"
   style="fill:none;fill-rule:evenodd;stroke:#1f1a17;stroke-width:3.29097939;image-rendering:optimizeQuality;shape-rendering:geometricPrecision;text-rendering:geometricPrecision"
   sodipodi:nodetypes="ccccc"
   inkscape:export-xdpi="90"
   inkscape:export-ydpi="90" /><path
   class="fil0 str2"
   d="m -172.02642,11127.033 -421.21578,0 0,-118.734 421.21578,0 0,118.734 z"
   id="path63-95-5-6"
   inkscape:connector-curvature="0"
   style="fill:none;fill-rule:evenodd;stroke:#1f1a17;stroke-width:3.29097939;image-rendering:optimizeQuality;shape-rendering:geometricPrecision;text-rendering:geometricPrecision"
   inkscape:export-xdpi="90"
   inkscape:export-ydpi="90" /><path
   class="fil0 str2"
   d="m 627.97416,11127.049 -421.21626,0 0,-118.734 421.21626,0 0,118.734 z"
   id="path63-95-74-8-5"
   inkscape:connector-curvature="0"
   style="fill:none;fill-rule:evenodd;stroke:#1f1a17;stroke-width:3.29097939;image-rendering:optimizeQuality;shape-rendering:geometricPrecision;text-rendering:geometricPrecision"
   inkscape:export-xdpi="90"
   inkscape:export-ydpi="90" /><path
   class="fil0 str2"
   d="m 1757.9974,13056.034 0,-421.215 118.7338,0 0,421.215 -118.7338,0 z"
   id="path63-95-4-6"
   inkscape:connector-curvature="0"
   style="fill:none;fill-rule:evenodd;stroke:#1f1a17;stroke-width:3.29097939;image-rendering:optimizeQuality;shape-rendering:geometricPrecision;text-rendering:geometricPrecision"
   inkscape:export-xdpi="90"
   inkscape:export-ydpi="90" /><path
   class="fil0 str2"
   d="m 1757.9984,12278.261 0,-421.216 118.7339,0 0,421.216 -118.7339,0 z"
   id="path63-95-7-7"
   inkscape:connector-curvature="0"
   style="fill:none;fill-rule:evenodd;stroke:#1f1a17;stroke-width:3.29097939;image-rendering:optimizeQuality;shape-rendering:geometricPrecision;text-rendering:geometricPrecision"
   inkscape:export-xdpi="90"
   inkscape:export-ydpi="90" /><path
   class="fil0 str2"
   d="m 1139.7635,7167.9762 c 0,-33.6063 27.4172,-61.0236 61.0235,-61.0236 33.6063,0 61.0236,27.4173 61.0236,61.0236 0,33.6063 -27.4173,61.0236 -61.0236,61.0236 -33.6063,0 -61.0235,-27.4173 -61.0235,-61.0236 z"
   id="path73-1"
   inkscape:connector-curvature="0"
   style="fill:none;fill-rule:evenodd;stroke:#1f1a17;stroke-width:3;image-rendering:optimizeQuality;shape-rendering:geometricPrecision;text-rendering:geometricPrecision"
   inkscape:export-xdpi="150"
   inkscape:export-ydpi="150" /><path
   class="fil0 str2"
   d="m 1152.5375,8406.2971 c 0,-33.6063 27.4172,-61.0236 61.0235,-61.0236 33.6063,0 61.0236,27.4173 61.0236,61.0236 0,33.6063 -27.4173,61.0236 -61.0236,61.0236 -33.6063,0 -61.0235,-27.4173 -61.0235,-61.0236 z"
   id="path73-1-9"
   inkscape:connector-curvature="0"
   style="fill:none;fill-rule:evenodd;stroke:#1f1a17;stroke-width:3;image-rendering:optimizeQuality;shape-rendering:geometricPrecision;text-rendering:geometricPrecision"
   inkscape:export-xdpi="150"
   inkscape:export-ydpi="150" /><path
   class="fil0 str2"
   d="m -1158.5732,8650.7413 c 0,-33.6063 27.4172,-61.0236 61.0235,-61.0236 33.6063,0 61.0236,27.4173 61.0236,61.0236 0,33.6063 -27.4173,61.0236 -61.0236,61.0236 -33.6063,0 -61.0235,-27.4173 -61.0235,-61.0236 z"
   id="path73-1-2"
   inkscape:connector-curvature="0"
   style="fill:none;fill-rule:evenodd;stroke:#1f1a17;stroke-width:3;image-rendering:optimizeQuality;shape-rendering:geometricPrecision;text-rendering:geometricPrecision"
   inkscape:export-xdpi="150"
   inkscape:export-ydpi="150" /><path
   class="fil0 str2"
   d="m -1114.1288,6495.1879 c 0,-33.6063 27.4172,-61.0236 61.0235,-61.0236 33.6063,0 61.02362,27.4173 61.02362,61.0236 0,33.6063 -27.41732,61.0236 -61.02362,61.0236 -33.6063,0 -61.0235,-27.4173 -61.0235,-61.0236 z"
   id="path73-1-5"
   inkscape:connector-curvature="0"
   style="fill:none;fill-rule:evenodd;stroke:#1f1a17;stroke-width:3;image-rendering:optimizeQuality;shape-rendering:geometricPrecision;text-rendering:geometricPrecision"
   inkscape:export-xdpi="150"
   inkscape:export-ydpi="150" /><path
   class="fil0 str1"
   d="m -1670.2693,13325.805 0,-1789.763 c 0,-145.521 192.0858,-297.967 312.4144,-297.967 l 2716.4127,0 c 120.3244,0 310.7943,152.454 312.4148,297.967 l 0,1687.381 0,102.382 c 0,145.514 -192.0904,297.954 -312.4148,297.954 l -2716.4127,0 c -120.3288,0 -312.4144,-152.441 -312.4144,-297.954 z"
   id="path49-8-9"
   inkscape:connector-curvature="0"
   style="fill:none;fill-rule:evenodd;stroke:#1f1a17;stroke-width:3.66132307;stroke-linecap:round;stroke-linejoin:round;image-rendering:optimizeQuality;shape-rendering:geometricPrecision;text-rendering:geometricPrecision"
   sodipodi:nodetypes="ssssscssss"
   inkscape:export-xdpi="90"
   inkscape:export-ydpi="90" /></g>
  
  
  
  
  
  
 <path
   class="fil0 str2"
   d="m -2660.3241,14478.685 0,-421.215 118.7337,0 0,421.215 -118.7337,0 z"
   id="path63-95-4"
   inkscape:connector-curvature="0"
   style="fill:none;fill-rule:evenodd;stroke:#1f1a17;stroke-width:3.29097939;image-rendering:optimizeQuality;shape-rendering:geometricPrecision;text-rendering:geometricPrecision"
   inkscape:export-xdpi="150"
   inkscape:export-ydpi="150" /><path
   class="fil0 str2"
   d="m -2660.3231,13700.912 0,-421.216 118.7338,0 0,421.216 -118.7338,0 z"
   id="path63-95-7"
   inkscape:connector-curvature="0"
   style="fill:none;fill-rule:evenodd;stroke:#1f1a17;stroke-width:3.29097939;image-rendering:optimizeQuality;shape-rendering:geometricPrecision;text-rendering:geometricPrecision"
   inkscape:export-xdpi="150"
   inkscape:export-ydpi="150" /><path
   class="fil0 str1"
   d="m -2233.1931,14488.452 118.11,0 0,709.874 402.7781,0 0,130.489 -402.7781,0 0,112.877 793.1741,0 0,-953.239 118.11,0 0,-403.539 -118.11,0 0,-128.936 -118.11,0 0,62.991 -118.11,0 0,-62.991 -78.74,0 0,-125.983 78.74,0 0,-62.991 118.11,0 0,62.991 118.11,0 0,-128.936 118.11,0 0,-403.539 -118.11,0 0,-997.698 -793.1741,0 0,112.881 402.7781,0 0,130.489 -73.6731,0 -329.105,0 0,754.329 -118.11,0 0,403.539 118.11,0 0,128.936 118.11,0 0,-62.991 118.11,0 0,62.991 78.74,0 0,125.983 -78.74,0 0,62.991 -118.11,0 0,-62.991 -118.11,0 0,128.936 -118.11,0 0,403.539 z"
   id="path45-2"
   inkscape:export-xdpi="150"
   inkscape:export-ydpi="150"
   inkscape:connector-curvature="0"
   style="fill:none;fill-rule:evenodd;stroke:#1f1a17;stroke-width:3;stroke-linecap:round;stroke-linejoin:round;image-rendering:optimizeQuality;shape-rendering:geometricPrecision;text-rendering:geometricPrecision"
   sodipodi:nodetypes="ccccccccccccccccccccccccccccccccccccccccccccccccccccccc" /><path
   class="fil0 str1"
   d="m -5000.35,11044.783 0,118.11 -1136.0198,0 0,402.778 -130.489,0 0,-402.778 -112.8769,0 0,793.174 1379.3847,0 0,118.11 403.539,0 0,-118.11 128.936,0 0,-118.11 -62.991,0 0,-118.11 62.991,0 0,-78.74 125.9831,0 0,78.74 62.991,0 0,118.11 -62.991,0 0,118.11 128.936,0 0,118.11 403.539,0 0,-118.11 1375.476,0 0,-793.174 -112.881,0 0,402.778 -130.489,0 0,-73.673 0,-329.105 -1132.107,0 0,-118.11 -403.539,0 0,118.11 -128.936,0 0,118.11 62.991,0 0,118.11 -62.991,0 0,78.74 -125.9831,0 0,-78.74 -62.991,0 0,-118.11 62.991,0 0,-118.11 -128.936,0 0,-118.11 -403.539,0 z"
   id="path45-1"
   inkscape:export-xdpi="150"
   inkscape:export-ydpi="150"
   inkscape:connector-curvature="0"
   style="fill:none;fill-rule:evenodd;stroke:#1f1a17;stroke-width:3;stroke-linecap:round;stroke-linejoin:round;image-rendering:optimizeQuality;shape-rendering:geometricPrecision;text-rendering:geometricPrecision"
   sodipodi:nodetypes="ccccccccccccccccccccccccccccccccccccccccccccccccccccccc" /><path
   class="fil0 str1"
   d="m -3810.0021,16925.246 0,-118.11 1136.02,0 0,-402.778 130.489,0 0,402.778 112.877,0 0,-793.174 -1379.385,0 0,-118.11 -403.539,0 0,118.11 -128.936,0 0,118.11 62.991,0 0,118.11 -62.991,0 0,78.74 -125.9831,0 0,-78.74 -62.991,0 0,-118.11 62.991,0 0,-118.11 -128.936,0 0,-118.11 -403.539,0 0,118.11 -1375.476,0 0,793.174 112.881,0 0,-402.778 130.489,0 0,73.673 0,329.105 1132.107,0 0,118.11 403.539,0 0,-118.11 128.936,0 0,-118.11 -62.991,0 0,-118.11 62.991,0 0,-78.74 125.9831,0 0,78.74 62.991,0 0,118.11 -62.991,0 0,118.11 128.936,0 0,118.11 403.539,0 z"
   id="path45-1-3"
   inkscape:export-xdpi="150"
   inkscape:export-ydpi="150"
   inkscape:connector-curvature="0"
   style="fill:none;fill-rule:evenodd;stroke:#1f1a17;stroke-width:3;stroke-linecap:round;stroke-linejoin:round;image-rendering:optimizeQuality;shape-rendering:geometricPrecision;text-rendering:geometricPrecision"
   sodipodi:nodetypes="ccccccccccccccccccccccccccccccccccccccccccccccccccccccc" /></g>
</svg>