<?xml version="1.0" encoding="iso-8859-1"?>
<!DOCTYPE svg PUBLIC "-//W3C//DTD SVG 1.0//EN" "http://www.w3.org/TR/2001/REC-SVG-20010904/DTD/svg10.dtd">
<!-- Creator: CorelDRAW -->
<svg xmlns="http://www.w3.org/2000/svg" xmlns:odm="http://product.corel.com/CGS/11/cddns/" xmlns:corel-charset="http://product.corel.com/CGS/11/cddns/" xml:space="preserve" width="8.5in" height="11in" style="shape-rendering:geometricPrecision; text-rendering:geometricPrecision; image-rendering:optimizeQuality; fill-rule:evenodd"
     viewBox="0 0 8500 11000">
 <defs>
  <style type="text/css">
   <![CDATA[
    .str0 {stroke:#1F1A17;stroke-width:2.25197;stroke-linecap:round;stroke-linejoin:round}
    .str3 {stroke:#0093DD;stroke-width:3}
    .str2 {stroke:#1F1A17;stroke-width:3}
    .str1 {stroke:#1F1A17;stroke-width:3;stroke-linecap:round;stroke-linejoin:round}
    .fil0 {fill:none}
   ]]>
  </style>
 </defs>
 <g id="Layer_x0020_1">
  <g>
   <g>
    <path class="fil0 str0" d="M-834.449 12967.6c-0.0669291,-171.075 -0.566929,-252.287 0.177165,-389.484 4.25984,-31.6063 17.6772,-62.2559 40.2323,-81.7953 99.0945,-74.3465 221.736,-118.283 354.382,-118.283m-394.791 591.291c0,-0.582677 0,-1.15354 0,-1.72047m395.441 -589.571c132.661,0 255.287,43.9449 354.382,118.283 22.5591,19.5354 35.9764,50.189 40.2441,81.7953 0.73622,137.201 0.251969,218.409 0.181102,389.5m-0.011811 3.16142c0.0669291,171.071 0.566929,252.287 -0.177165,389.48 -4.25984,31.6102 -17.6772,62.2559 -40.2441,81.7992 -99.0866,74.3543 -221.72,118.283 -354.386,118.283m394.807 -591.287c0,0.582677 0,1.15354 0,1.72441m-395.449 589.563c-132.665,0 -255.291,-43.9291 -354.386,-118.283 -22.5591,-19.5354 -35.9764,-50.189 -40.2441,-81.7992 -0.73622,-137.197 -0.251969,-218.425 -0.177165,-389.496m394.807 589.579z"/>
    <path class="fil0 str0" d="M31.7126 12967.6c-0.0669291,-171.075 -0.566929,-252.287 0.181102,-389.484 4.25591,-31.6063 17.6732,-62.2559 40.2441,-81.7953 99.0945,-74.3465 221.72,-118.283 354.386,-118.283m-394.811 591.291c0,-0.582677 0,-1.15354 0,-1.72047m395.457 -589.571c132.654,0 255.287,43.9449 354.374,118.283 22.5669,19.5354 35.9882,50.189 40.2441,81.7953 0.751969,137.201 0.26378,218.409 0.177165,389.5m-0.00787402 3.16142c0.0669291,171.071 0.566929,252.287 -0.181102,389.48 -4.25591,31.6102 -17.6732,62.2559 -40.2441,81.7992 -99.0945,74.3543 -221.72,118.283 -354.386,118.283m394.811 -591.287c0,0.582677 0,1.15354 0,1.72441m-395.441 589.563c-132.654,0 -255.287,-43.9291 -354.374,-118.283 -22.5669,-19.5354 -35.9843,-50.189 -40.2441,-81.7992 -0.751969,-137.197 -0.26378,-218.425 -0.177165,-389.496m394.795 589.579z"/>
   </g>
   <path class="fil0 str1" d="M-1259.84 14031.5l0 -2125.98c0,-108.425 88.4252,-196.854 196.85,-196.854l2125.98 0c108.421,0 196.85,88.4291 196.85,196.854l0 2125.98c0,108.421 -88.4291,196.846 -196.85,196.846l-2125.98 0c-108.425,0 -196.85,-88.4252 -196.85,-196.846z"/>
   <path class="fil0 str2" d="M-585.63 11910.4l383.858 0 0 108.268 -383.858 0 0 -108.268z"/>
   <path class="fil0 str2" d="M201.772 11910.4l383.858 0 0 108.268 -383.858 0 0 -108.268z"/>
   <path class="fil0 str2" d="M0 11903.5c33.6063,0 61.0236,27.4173 61.0236,61.0236 0,33.6063 -27.4173,61.0236 -61.0236,61.0236 -33.6063,0 -61.0236,-27.4173 -61.0236,-61.0236 0,-33.6063 27.4173,-61.0236 61.0236,-61.0236z"/>
   <path class="fil0 str2" d="M-585.63 13918.3l383.858 0 0 108.268 -383.858 0 0 -108.268z"/>
   <path class="fil0 str2" d="M201.772 13918.3l383.858 0 0 108.268 -383.858 0 0 -108.268z"/>
   <path class="fil0 str2" d="M0 13911.4c33.6063,0 61.0236,27.4173 61.0236,61.0236 0,33.6063 -27.4173,61.0236 -61.0236,61.0236 -33.6063,0 -61.0236,-27.4173 -61.0236,-61.0236 0,-33.6063 27.4173,-61.0236 61.0236,-61.0236z"/>
   <path class="fil0 str2" d="M-1058.07 13554.1l0 -383.858 108.268 0 0 383.858 -108.268 0z"/>
   <path class="fil0 str2" d="M-1058.07 12766.7l0 -383.858 108.268 0 0 383.858 -108.268 0z"/>
   <path class="fil0 str2" d="M-1064.96 12968.5c0,-33.6063 27.4173,-61.0236 61.0236,-61.0236 33.6063,0 61.0236,27.4173 61.0236,61.0236 0,33.6063 -27.4173,61.0236 -61.0236,61.0236 -33.6063,0 -61.0236,-27.4173 -61.0236,-61.0236z"/>
   <path class="fil0 str2" d="M949.803 13554.1l0 -383.858 108.268 0 0 383.858 -108.268 0z"/>
   <path class="fil0 str2" d="M949.803 12766.7l0 -383.858 108.268 0 0 383.858 -108.268 0z"/>
   <path class="fil0 str2" d="M942.913 12968.5c0,-33.6063 27.4173,-61.0236 61.0236,-61.0236 33.6063,0 61.0236,27.4173 61.0236,61.0236 0,33.6063 -27.4173,61.0236 -61.0236,61.0236 -33.6063,0 -61.0236,-27.4173 -61.0236,-61.0236z"/>
  </g>
  <path class="fil0 str1" d="M1811.02 7476.37l364.173 0c0,511.807 0,1023.63 0,1535.43l-364.173 0 0 -1535.43zm-78.7402 959.646l-118.11 0 0 403.543 118.11 0 0 354.331 625 0 0 108.268 -625 0 0 201.768 1259.84 0 0 -664.366 118.11 0 0 -403.543 -118.11 0 0 -128.937 -118.11 0 0 62.9921 -118.11 0 0 -62.9921 -78.7402 0 0 -125.984 78.7402 0 0 -62.9921 118.11 0 0 62.9921 118.11 0 0 -128.937 118.11 0 0 -403.543 -118.11 0 0 -664.37 -1259.84 0 0 201.772 625 0 0 108.268 -625 0 0 354.331 -118.11 0 0 403.543 118.11 0 0 383.858z"/>
  <path class="fil0 str1" d="M-1614.17 7648.62l-118.11 0 0 -354.331 -625 0 0 -108.268 625 0 0 -201.768 -1259.84 0 0 664.366 -118.11 0 0 403.543 118.11 0 0 128.937 118.11 0 0 -62.9921 118.11 0 0 62.9921 78.7402 0 0 125.984 -78.7402 0 0 62.9921 -118.11 0 0 -62.9921 -118.11 0 0 128.937 -118.11 0 0 403.543 118.11 0 0 664.37 1259.84 0 0 -201.772 -625 0 0 -108.268 73.6732 0 551.327 0 0 -354.331 118.11 0 0 -403.543 -118.11 0 0 -128.937 -118.11 0 0 62.9921 -118.11 0 0 -62.9921 -78.7402 0 0 -125.984 78.7402 0 0 -62.9921 118.11 0 0 62.9921 118.11 0 0 -128.937 118.11 0 0 -403.543z"/>
  <g>
   <path class="fil0 str1" d="M-1259.84 9307.09l0 -2125.98c0,-108.425 88.4252,-196.854 196.85,-196.854l2125.98 0c108.421,0 196.85,88.4291 196.85,196.854l0 2125.98c0,108.421 -88.4291,196.846 -196.85,196.846l-2125.98 0c-108.425,0 -196.85,-88.4252 -196.85,-196.846z"/>
   <path class="fil0 str2" d="M-585.63 7186.02l383.858 0 0 108.268 -383.858 0 0 -108.268z"/>
   <path class="fil0 str2" d="M201.772 7186.02l383.858 0 0 108.268 -383.858 0 0 -108.268z"/>
   <path class="fil0 str2" d="M0 7179.13c33.6063,0 61.0236,27.4173 61.0236,61.0236 0,33.6063 -27.4173,61.0236 -61.0236,61.0236 -33.6063,0 -61.0236,-27.4173 -61.0236,-61.0236 0,-33.6063 27.4173,-61.0236 61.0236,-61.0236z"/>
   <path class="fil0 str2" d="M-585.63 9193.9l383.858 0 0 108.268 -383.858 0 0 -108.268z"/>
   <path class="fil0 str2" d="M201.772 9193.9l383.858 0 0 108.268 -383.858 0 0 -108.268z"/>
   <path class="fil0 str2" d="M0 9187.01c33.6063,0 61.0236,27.4173 61.0236,61.0236 0,33.6063 -27.4173,61.0236 -61.0236,61.0236 -33.6063,0 -61.0236,-27.4173 -61.0236,-61.0236 0,-33.6063 27.4173,-61.0236 61.0236,-61.0236z"/>
   <path class="fil0 str2" d="M-1058.07 8829.72l0 -383.858 108.268 0 0 383.858 -108.268 0z"/>
   <path class="fil0 str2" d="M-1058.07 8042.32l0 -383.858 108.268 0 0 383.858 -108.268 0z"/>
   <path class="fil0 str2" d="M-1064.96 8244.09c0,-33.6063 27.4173,-61.0236 61.0236,-61.0236 33.6063,0 61.0236,27.4173 61.0236,61.0236 0,33.6063 -27.4173,61.0236 -61.0236,61.0236 -33.6063,0 -61.0236,-27.4173 -61.0236,-61.0236z"/>
   <path class="fil0 str2" d="M949.803 8829.72l0 -383.858 108.268 0 0 383.858 -108.268 0z"/>
   <path class="fil0 str2" d="M949.803 8042.32l0 -383.858 108.268 0 0 383.858 -108.268 0z"/>
   <path class="fil0 str2" d="M942.913 8244.09c0,-33.6063 27.4173,-61.0236 61.0236,-61.0236 33.6063,0 61.0236,27.4173 61.0236,61.0236 0,33.6063 -27.4173,61.0236 -61.0236,61.0236 -33.6063,0 -61.0236,-27.4173 -61.0236,-61.0236z"/>
  </g>
  <path class="fil0 str1" d="M595.469 11354.3l0 -118.11 354.331 0 0 -625 108.268 0 0 625 201.768 0 0 -1259.84 -664.366 0 0 -118.11 -403.543 0 0 118.11 -128.937 0 0 118.11 62.9921 0 0 118.11 -62.9921 0 0 78.7402 -125.984 0 0 -78.7402 -62.9921 0 0 -118.11 62.9921 0 0 -118.11 -128.937 0 0 -118.11 -403.543 0 0 118.11 -664.37 0 0 1259.84 201.772 0 0 -625 108.268 0 0 73.6732 0 551.327 354.331 0 0 118.11 403.543 0 0 -118.11 128.937 0 0 -118.11 -62.9921 0 0 -118.11 62.9921 0 0 -78.7402 125.984 0 0 78.7402 62.9921 0 0 118.11 -62.9921 0 0 118.11 128.937 0 0 118.11 403.543 0z"/>
  <path class="fil0 str1" d="M-595.476 5133.86l0 118.11 -354.331 0 0 625 -108.268 0 0 -625 -201.768 0 0 1259.84 664.366 0 0 118.11 403.543 0 0 -118.11 128.937 0 0 -118.11 -62.9921 0 0 -118.11 62.9921 0 0 -78.7402 125.984 0 0 78.7402 62.9921 0 0 118.11 -62.9921 0 0 118.11 128.937 0 0 118.11 403.543 0 0 -118.11 664.37 0 0 -1259.84 -201.772 0 0 625 -108.268 0 0 -73.6732 0 -551.327 -354.331 0 0 -118.11 -403.543 0 0 118.11 -128.937 0 0 118.11 62.9921 0 0 118.11 -62.9921 0 0 78.7402 -125.984 0 0 -78.7402 -62.9921 0 0 -118.11 62.9921 0 0 -118.11 -128.937 0 0 -118.11 -403.543 0z"/>
  <path class="fil0 str3" d="M-1259.84 7181.1l2519.69 0 0 118.11 -2519.69 0 0 -118.11z"/>
  <path class="fil0 str3" d="M-1259.84 9188.98l2519.69 0 0 118.11 -2519.69 0 0 -118.11z"/>
  <path class="fil0 str3" d="M-1062.99 9503.94l0 -2519.69 118.11 0 0 2519.69 -118.11 0z"/>
  <path class="fil0 str3" d="M944.882 9503.94l0 -2519.69 118.11 0 0 2519.69 -118.11 0z"/>
 </g>
</svg>
