<?xml version="1.0" encoding="UTF-8" standalone="no"?>
<!-- Creator: CorelDRAW -->

<svg
   xmlns:dc="http://purl.org/dc/elements/1.1/"
   xmlns:cc="http://creativecommons.org/ns#"
   xmlns:rdf="http://www.w3.org/1999/02/22-rdf-syntax-ns#"
   xmlns:svg="http://www.w3.org/2000/svg"
   xmlns="http://www.w3.org/2000/svg"
   xmlns:sodipodi="http://sodipodi.sourceforge.net/DTD/sodipodi-0.dtd"
   xmlns:inkscape="http://www.inkscape.org/namespaces/inkscape"
   xml:space="preserve"
   width="220.17834mm"
   height="141.05879mm"
   style="fill-rule:evenodd;image-rendering:optimizeQuality;shape-rendering:geometricPrecision;text-rendering:geometricPrecision"
   viewBox="0 0 8668.4392 5553.4957"
   id="svg2"
   version="1.1"
   inkscape:version="0.91 r13725"
   sodipodi:docname="WiiBescorLancBox.svg"
   inkscape:export-filename="C:\Users\David\Desktop\Modeling\WiiBescorLancBox1.png"
   inkscape:export-xdpi="150"
   inkscape:export-ydpi="150"><metadata
   id="metadata89"><rdf:RDF><cc:Work
       rdf:about=""><dc:format>image/svg+xml</dc:format><dc:type
         rdf:resource="http://purl.org/dc/dcmitype/StillImage" /><dc:title></dc:title></cc:Work></rdf:RDF></metadata><sodipodi:namedview
   pagecolor="#ffffff"
   bordercolor="#666666"
   borderopacity="1"
   objecttolerance="10"
   gridtolerance="10"
   guidetolerance="10"
   inkscape:pageopacity="0"
   inkscape:pageshadow="2"
   inkscape:window-width="1024"
   inkscape:window-height="718"
   id="namedview87"
   showgrid="true"
   inkscape:snap-grids="true"
   showguides="true"
   inkscape:zoom="1"
   inkscape:cx="647.1505"
   inkscape:cy="256.22936"
   inkscape:window-x="-8"
   inkscape:window-y="-8"
   inkscape:window-maximized="1"
   inkscape:current-layer="g47"
   inkscape:document-units="mm"
   units="mm"
   fit-margin-top="5"
   fit-margin-left="5"
   fit-margin-right="5"
   fit-margin-bottom="5"><inkscape:grid
     type="xygrid"
     id="grid3597"
     units="mm"
     dotted="false"
     originx="4070.6897"
     originy="1781.7437"
     spacingx="39.370078"
     spacingy="39.370079"
     visible="true"
     empspacing="5" /></sodipodi:namedview>
 <defs
   id="defs4">
  <style
   type="text/css"
   id="style6">
   <![CDATA[
    .str0 {stroke:#1F1A17;stroke-width:2.25197;stroke-linecap:round;stroke-linejoin:round}
    .str3 {stroke:#0093DD;stroke-width:3}
    .str2 {stroke:#1F1A17;stroke-width:3}
    .str1 {stroke:#1F1A17;stroke-width:3;stroke-linecap:round;stroke-linejoin:round}
    .fil0 {fill:none}
   ]]>
  </style>
 </defs>
 <g
   id="Layer_x0020_1"
   transform="translate(8488.7556,-10092.842)">
  
  
  <path
   class="fil0 str1"
   d="m -6794.3452,13259.357 -118.11,0 0,-709.874 -625,0 0,-108.267 625,0 0,-157.321 -1259.84,0 0,975.461 -118.11,0 0,403.539 118.11,0 0,128.936 118.11,0 0,-62.991 118.11,0 0,62.991 78.7402,0 0,125.983 -78.7402,0 0,62.991 -118.11,0 0,-62.991 -118.11,0 0,128.936 -118.11,0 0,403.539 118.11,0 0,997.698 1259.84,0 0,-135.103 -625,0 0,-108.267 73.6732,0 551.327,0 0,-754.329 118.11,0 0,-403.539 -118.11,0 0,-128.936 -118.11,0 0,62.991 -118.11,0 0,-62.991 -78.7402,0 0,-125.983 78.7402,0 0,-62.991 118.11,0 0,62.991 118.11,0 0,-128.936 118.11,0 0,-403.539 z"
   id="path45"
   inkscape:export-xdpi="150"
   inkscape:export-ydpi="150"
   inkscape:connector-curvature="0"
   style="fill:none;stroke:#1f1a17;stroke-width:3;stroke-linecap:round;stroke-linejoin:round"
   sodipodi:nodetypes="ccccccccccccccccccccccccccccccccccccccccccccccccccccccc" />
  <g
   id="g47"
   inkscape:export-xdpi="90"
   inkscape:export-ydpi="90"
   transform="translate(-4424.6204,6277.433)">
   <path
   class="fil0 str1"
   d="m -1959.0559,8766.5023 0,-2355.9082 c 0,-191.5513 227.1664,-392.2207 369.4704,-392.2207 l 3212.5042,0 c 142.299,0 367.5541,200.6791 369.4705,392.2207 l 0,2221.14 0,134.7682 c 0,191.544 -227.1716,392.2046 -369.4705,392.2046 l -3212.5042,0 c -142.3043,0 -369.4704,-200.6616 -369.4704,-392.2046 z"
   id="path49"
   inkscape:connector-curvature="0"
   style="fill:none;stroke:#1f1a17;stroke-width:4.56818342;stroke-linecap:round;stroke-linejoin:round"
   sodipodi:nodetypes="ssssscssss"
   inkscape:export-xdpi="150"
   inkscape:export-ydpi="150" />
   
   
   <path
   class="fil0 str2"
   d="m 22.222222,6156.9088 c 33.6063,0 61.0236,27.4173 61.0236,61.0236 0,33.6063 -27.4173,61.0236 -61.0236,61.0236 -33.6063,0 -61.0236,-27.4173 -61.0236,-61.0236 0,-33.6063 27.4173,-61.0236 61.0236,-61.0236 z"
   id="path55"
   inkscape:connector-curvature="0"
   style="fill:none;stroke:#1f1a17;stroke-width:3"
   inkscape:export-xdpi="150"
   inkscape:export-ydpi="150" />
   
   
   <path
   class="fil0 str2"
   d="m 22.222222,8920.3387 c 33.6063,0 61.0236,27.418 61.0236,61.023 0,33.607 -27.4173,61.024 -61.0236,61.024 -33.6063,0 -61.0236,-27.417 -61.0236,-61.024 0,-33.605 27.4173,-61.023 61.0236,-61.023 z"
   id="path61"
   inkscape:connector-curvature="0"
   style="fill:none;stroke:#1f1a17;stroke-width:3"
   sodipodi:nodetypes="sssss"
   inkscape:export-xdpi="150"
   inkscape:export-ydpi="150" />
   <path
   class="fil0 str2"
   d="m -1835.7016,8179.0437 0,-421.2157 118.7338,0 0,421.2157 -118.7338,0 z"
   id="path63"
   inkscape:connector-curvature="0"
   style="fill:none;stroke:#1f1a17;stroke-width:3.29097939"
   inkscape:export-xdpi="150"
   inkscape:export-ydpi="150" />
   
   <path
   class="fil0 str2"
   d="m -1842.737,7577.424 c 0,-33.6063 27.4173,-61.0236 61.0236,-61.0236 33.6063,0 61.0235,27.4173 61.0235,61.0236 0,33.6063 -27.4172,61.0236 -61.0235,61.0236 -33.6063,0 -61.0236,-27.4173 -61.0236,-61.0236 z"
   id="path67"
   inkscape:connector-curvature="0"
   style="fill:none;stroke:#1f1a17;stroke-width:3"
   inkscape:export-xdpi="150"
   inkscape:export-ydpi="150" />
   
   
   <path
   class="fil0 str2"
   d="m 1765.1345,7599.6462 c 0,-33.6063 27.4172,-61.0236 61.0235,-61.0236 33.6063,0 61.0236,27.4173 61.0236,61.0236 0,33.6063 -27.4173,61.0236 -61.0236,61.0236 -33.6063,0 -61.0235,-27.4173 -61.0235,-61.0236 z"
   id="path73"
   inkscape:connector-curvature="0"
   style="fill:none;stroke:#1f1a17;stroke-width:3"
   inkscape:export-xdpi="150"
   inkscape:export-ydpi="150" />
  <path
   class="fil0 str2"
   d="m -1835.7014,7401.2659 0,-421.2157 118.7338,0 0,421.2157 -118.7338,0 z"
   id="path63-8"
   inkscape:connector-curvature="0"
   style="fill:none;fill-rule:evenodd;stroke:#1f1a17;stroke-width:3.29097939;image-rendering:optimizeQuality;shape-rendering:geometricPrecision;text-rendering:geometricPrecision"
   inkscape:export-xdpi="150"
   inkscape:export-ydpi="150" /><path
   class="fil0 str2"
   d="m -165.7271,9050.0197 -421.2159,0 0,-118.733 421.2159,0 z"
   id="path63-95"
   inkscape:connector-curvature="0"
   style="fill:none;fill-rule:evenodd;stroke:#1f1a17;stroke-width:3.29097939;image-rendering:optimizeQuality;shape-rendering:geometricPrecision;text-rendering:geometricPrecision"
   sodipodi:nodetypes="ccccc"
   inkscape:export-xdpi="150"
   inkscape:export-ydpi="150" /><path
   class="fil0 str2"
   d="m 634.27306,9050.0357 -421.21601,0 0,-118.733 421.21601,0 z"
   id="path63-95-74"
   inkscape:connector-curvature="0"
   style="fill:none;fill-rule:evenodd;stroke:#1f1a17;stroke-width:3.29097939;image-rendering:optimizeQuality;shape-rendering:geometricPrecision;text-rendering:geometricPrecision"
   sodipodi:nodetypes="ccccc"
   inkscape:export-xdpi="150"
   inkscape:export-ydpi="150" /><path
   class="fil0 str2"
   d="m -165.72706,6272.2504 -421.21589,0 0,-118.7342 421.21589,0 0,118.7342 z"
   id="path63-95-5"
   inkscape:connector-curvature="0"
   style="fill:none;fill-rule:evenodd;stroke:#1f1a17;stroke-width:3.29097939;image-rendering:optimizeQuality;shape-rendering:geometricPrecision;text-rendering:geometricPrecision"
   inkscape:export-xdpi="150"
   inkscape:export-ydpi="150" /><path
   class="fil0 str2"
   d="m 634.27336,6272.2664 -421.21625,0 0,-118.7342 421.21625,0 0,118.7342 z"
   id="path63-95-74-8"
   inkscape:connector-curvature="0"
   style="fill:none;fill-rule:evenodd;stroke:#1f1a17;stroke-width:3.29097939;image-rendering:optimizeQuality;shape-rendering:geometricPrecision;text-rendering:geometricPrecision"
   inkscape:export-xdpi="150"
   inkscape:export-ydpi="150" /><path
   class="fil0 str1"
   d="m -1965.3547,15087.937 0,-2355.908 c 0,-191.552 227.1663,-392.221 369.4703,-392.221 l 3212.5042,0 c 142.299,0 367.5541,200.679 369.4705,392.221 l 0,2221.14 0,134.768 c 0,191.544 -227.1716,392.204 -369.4705,392.204 l -3212.5042,0 c -142.3043,0 -369.4703,-200.661 -369.4703,-392.204 z"
   id="path49-8"
   inkscape:connector-curvature="0"
   style="fill:none;fill-rule:evenodd;stroke:#1f1a17;stroke-width:4.56818342;stroke-linecap:round;stroke-linejoin:round;image-rendering:optimizeQuality;shape-rendering:geometricPrecision;text-rendering:geometricPrecision"
   sodipodi:nodetypes="ssssscssss"
   inkscape:export-xdpi="90"
   inkscape:export-ydpi="90" /><path
   class="fil0 str2"
   d="m 15.922992,12478.343 c 33.606302,0 61.023504,27.418 61.023504,61.024 0,33.606 -27.417202,61.024 -61.023504,61.024 -33.606403,0 -61.023606,-27.418 -61.023606,-61.024 0,-33.606 27.417203,-61.024 61.023606,-61.024 z"
   id="path55-0"
   inkscape:connector-curvature="0"
   style="fill:none;fill-rule:evenodd;stroke:#1f1a17;stroke-width:3;image-rendering:optimizeQuality;shape-rendering:geometricPrecision;text-rendering:geometricPrecision"
   inkscape:export-xdpi="90"
   inkscape:export-ydpi="90" /><path
   class="fil0 str2"
   d="m 15.922992,15241.773 c 33.606302,0 61.023504,27.418 61.023504,61.023 0,33.607 -27.417202,61.024 -61.023504,61.024 -33.606403,0 -61.023606,-27.417 -61.023606,-61.024 0,-33.605 27.417203,-61.023 61.023606,-61.023 z"
   id="path61-2"
   inkscape:connector-curvature="0"
   style="fill:none;fill-rule:evenodd;stroke:#1f1a17;stroke-width:3;image-rendering:optimizeQuality;shape-rendering:geometricPrecision;text-rendering:geometricPrecision"
   sodipodi:nodetypes="sssss"
   inkscape:export-xdpi="90"
   inkscape:export-ydpi="90" /><path
   class="fil0 str2"
   d="m -1842.0005,14500.478 0,-421.216 118.7338,0 0,421.216 -118.7338,0 z"
   id="path63-9"
   inkscape:connector-curvature="0"
   style="fill:none;fill-rule:evenodd;stroke:#1f1a17;stroke-width:3.29097939;image-rendering:optimizeQuality;shape-rendering:geometricPrecision;text-rendering:geometricPrecision"
   inkscape:export-xdpi="90"
   inkscape:export-ydpi="90" /><path
   class="fil0 str2"
   d="m -1849.0359,13898.858 c 0,-33.606 27.4173,-61.023 61.0236,-61.023 33.6063,0 61.0235,27.417 61.0235,61.023 0,33.607 -27.4172,61.024 -61.0235,61.024 -33.6063,0 -61.0236,-27.417 -61.0236,-61.024 z"
   id="path67-2"
   inkscape:connector-curvature="0"
   style="fill:none;fill-rule:evenodd;stroke:#1f1a17;stroke-width:3;image-rendering:optimizeQuality;shape-rendering:geometricPrecision;text-rendering:geometricPrecision"
   inkscape:export-xdpi="90"
   inkscape:export-ydpi="90" /><path
   class="fil0 str2"
   d="m 1758.8355,13921.081 c 0,-33.607 27.4173,-61.024 61.0236,-61.024 33.6063,0 61.0236,27.417 61.0236,61.024 0,33.606 -27.4173,61.023 -61.0236,61.023 -33.6063,0 -61.0236,-27.417 -61.0236,-61.023 z"
   id="path73-9"
   inkscape:connector-curvature="0"
   style="fill:none;fill-rule:evenodd;stroke:#1f1a17;stroke-width:3;image-rendering:optimizeQuality;shape-rendering:geometricPrecision;text-rendering:geometricPrecision"
   inkscape:export-xdpi="90"
   inkscape:export-ydpi="90" /><path
   class="fil0 str2"
   d="m -1842.0003,13722.7 0,-421.215 118.7338,0 0,421.215 -118.7338,0 z"
   id="path63-8-7"
   inkscape:connector-curvature="0"
   style="fill:none;fill-rule:evenodd;stroke:#1f1a17;stroke-width:3.29097939;image-rendering:optimizeQuality;shape-rendering:geometricPrecision;text-rendering:geometricPrecision"
   inkscape:export-xdpi="90"
   inkscape:export-ydpi="90" /><path
   class="fil0 str2"
   d="m -172.02642,15371.454 -421.21578,0 0,-118.733 421.21578,0 z"
   id="path63-95-45"
   inkscape:connector-curvature="0"
   style="fill:none;fill-rule:evenodd;stroke:#1f1a17;stroke-width:3.29097939;image-rendering:optimizeQuality;shape-rendering:geometricPrecision;text-rendering:geometricPrecision"
   sodipodi:nodetypes="ccccc"
   inkscape:export-xdpi="90"
   inkscape:export-ydpi="90" /><path
   class="fil0 str2"
   d="m 627.97376,15371.47 -421.21606,0 0,-118.733 421.21606,0 z"
   id="path63-95-74-87"
   inkscape:connector-curvature="0"
   style="fill:none;fill-rule:evenodd;stroke:#1f1a17;stroke-width:3.29097939;image-rendering:optimizeQuality;shape-rendering:geometricPrecision;text-rendering:geometricPrecision"
   sodipodi:nodetypes="ccccc"
   inkscape:export-xdpi="90"
   inkscape:export-ydpi="90" /><path
   class="fil0 str2"
   d="m -172.02642,12593.685 -421.21578,0 0,-118.734 421.21578,0 0,118.734 z"
   id="path63-95-5-6"
   inkscape:connector-curvature="0"
   style="fill:none;fill-rule:evenodd;stroke:#1f1a17;stroke-width:3.29097939;image-rendering:optimizeQuality;shape-rendering:geometricPrecision;text-rendering:geometricPrecision"
   inkscape:export-xdpi="90"
   inkscape:export-ydpi="90" /><path
   class="fil0 str2"
   d="m 627.97416,12593.701 -421.21626,0 0,-118.734 421.21626,0 0,118.734 z"
   id="path63-95-74-8-5"
   inkscape:connector-curvature="0"
   style="fill:none;fill-rule:evenodd;stroke:#1f1a17;stroke-width:3.29097939;image-rendering:optimizeQuality;shape-rendering:geometricPrecision;text-rendering:geometricPrecision"
   inkscape:export-xdpi="90"
   inkscape:export-ydpi="90" /><path
   class="fil0 str2"
   d="m 1757.9974,14522.686 0,-421.215 118.7338,0 0,421.215 -118.7338,0 z"
   id="path63-95-4-6"
   inkscape:connector-curvature="0"
   style="fill:none;fill-rule:evenodd;stroke:#1f1a17;stroke-width:3.29097939;image-rendering:optimizeQuality;shape-rendering:geometricPrecision;text-rendering:geometricPrecision"
   inkscape:export-xdpi="90"
   inkscape:export-ydpi="90" /><path
   class="fil0 str2"
   d="m 1757.9984,13744.913 0,-421.216 118.7339,0 0,421.216 -118.7339,0 z"
   id="path63-95-7-7"
   inkscape:connector-curvature="0"
   style="fill:none;fill-rule:evenodd;stroke:#1f1a17;stroke-width:3.29097939;image-rendering:optimizeQuality;shape-rendering:geometricPrecision;text-rendering:geometricPrecision"
   inkscape:export-xdpi="90"
   inkscape:export-ydpi="90" /></g>
  
  
  
  
  
  
 <path
   class="fil0 str2"
   d="m -2660.3241,14478.685 0,-421.215 118.7337,0 0,421.215 -118.7337,0 z"
   id="path63-95-4"
   inkscape:connector-curvature="0"
   style="fill:none;fill-rule:evenodd;stroke:#1f1a17;stroke-width:3.29097939;image-rendering:optimizeQuality;shape-rendering:geometricPrecision;text-rendering:geometricPrecision"
   inkscape:export-xdpi="150"
   inkscape:export-ydpi="150" /><path
   class="fil0 str2"
   d="m -2660.3231,13700.912 0,-421.216 118.7338,0 0,421.216 -118.7338,0 z"
   id="path63-95-7"
   inkscape:connector-curvature="0"
   style="fill:none;fill-rule:evenodd;stroke:#1f1a17;stroke-width:3.29097939;image-rendering:optimizeQuality;shape-rendering:geometricPrecision;text-rendering:geometricPrecision"
   inkscape:export-xdpi="150"
   inkscape:export-ydpi="150" /><path
   class="fil0 str1"
   d="m -4997.8747,10291.192 0,118.109 -1154.331,0 0,624.995 -108.268,0 0,-624.995 -135.1012,0 0,1259.828 1397.6992,0 0,118.108 403.5433,0 0,-118.108 128.9371,0 0,-118.108 -62.9921,0 0,-118.109 62.9921,0 0,-78.739 125.9841,0 0,78.739 62.9922,0 0,118.109 -62.9922,0 0,118.108 128.937,0 0,118.108 403.5433,0 0,-118.108 1375.4804,0 0,-1259.828 -112.883,0 0,624.995 -108.2679,0 0,-73.673 0,-551.322 -1154.3305,0 0,-118.109 -403.5433,0 0,118.109 -128.937,0 0,118.109 62.9922,0 0,118.109 -62.9922,0 0,78.739 -125.9841,0 0,-78.739 -62.9922,0 0,-118.109 62.9922,0 0,-118.109 -128.9371,0 0,-118.109 -403.5433,0 z"
   id="path75-2"
   inkscape:export-xdpi="150"
   inkscape:export-ydpi="150"
   inkscape:connector-curvature="0"
   style="fill:none;fill-rule:evenodd;stroke:#1f1a17;stroke-width:3;stroke-linecap:round;stroke-linejoin:round;image-rendering:optimizeQuality;shape-rendering:geometricPrecision;text-rendering:geometricPrecision"
   sodipodi:nodetypes="ccccccccccccccccccccccccccccccccccccccccccccccccccccccc" /><path
   class="fil0 str1"
   d="m -3819.3503,17715.16 0,-118.109 1154.3305,0 0,-624.995 108.2679,0 0,624.995 135.1019,0 0,-1259.828 -1397.6993,0 0,-118.108 -403.543,0 0,118.108 -128.937,0 0,118.108 62.992,0 0,118.109 -62.992,0 0,78.739 -125.984,0 0,-78.739 -62.992,0 0,-118.109 62.992,0 0,-118.108 -128.937,0 0,-118.108 -403.543,0 0,118.108 -1375.481,0 0,1259.828 112.883,0 0,-624.995 108.268,0 0,73.673 0,551.322 1154.331,0 0,118.109 403.543,0 0,-118.109 128.937,0 0,-118.109 -62.992,0 0,-118.109 62.992,0 0,-78.739 125.984,0 0,78.739 62.992,0 0,118.109 -62.992,0 0,118.109 128.937,0 0,118.109 403.543,0 z"
   id="path75-2-6"
   inkscape:export-xdpi="90"
   inkscape:export-ydpi="90"
   inkscape:connector-curvature="0"
   style="fill:none;fill-rule:evenodd;stroke:#1f1a17;stroke-width:3;stroke-linecap:round;stroke-linejoin:round;image-rendering:optimizeQuality;shape-rendering:geometricPrecision;text-rendering:geometricPrecision"
   sodipodi:nodetypes="ccccccccccccccccccccccccccccccccccccccccccccccccccccccc" /><path
   class="fil0 str1"
   d="m -1514.7269,14460.123 118.1099,0 0,709.874 624.99968,0 0,108.267 -624.99968,0 0,157.321 1259.84014,0 0,-975.461 118.110129,0 0,-403.539 -118.110129,0 0,-128.936 -118.1101,0 0,62.991 -118.1101,0 0,-62.991 -78.74008,0 0,-125.983 78.74008,0 0,-62.991 118.1101,0 0,62.991 118.1101,0 0,-128.936 118.110129,0 0,-403.539 -118.110129,0 0,-997.698 -1259.84014,0 0,135.103 624.99968,0 0,108.267 -73.673,0 -551.32668,0 0,754.329 -118.1099,0 0,403.539 118.1099,0 0,128.936 118.1099,0 0,-62.991 118.1099,0 0,62.991 78.7399,0 0,125.983 -78.7399,0 0,62.991 -118.1099,0 0,-62.991 -118.1099,0 0,128.936 -118.1099,0 0,403.539 z"
   id="path45-2"
   inkscape:export-xdpi="150"
   inkscape:export-ydpi="150"
   inkscape:connector-curvature="0"
   style="fill:none;fill-rule:evenodd;stroke:#1f1a17;stroke-width:3;stroke-linecap:round;stroke-linejoin:round;image-rendering:optimizeQuality;shape-rendering:geometricPrecision;text-rendering:geometricPrecision"
   sodipodi:nodetypes="ccccccccccccccccccccccccccccccccccccccccccccccccccccccc" /></g>
</svg>